{
    "asset" : {
        "generator" : "Khronos glTF Blender I/O v1.2.17",
        "version" : "2.0"
    },
    "scene" : 0,
    "scenes" : [
        {
            "name" : "Scene",
            "nodes" : [
                0
            ]
        }
    ],
    "nodes" : [
        {
            "mesh" : 0,
            "name" : "Baseball Glove",
            "rotation" : [
                -0.48237839341163635,
                -0.8278324007987976,
                -0.1466217339038849,
                -0.24598096311092377
            ]
        }
    ],
    "materials" : [
        {
            "doubleSided" : true,
            "emissiveFactor" : [
                0,
                0,
                0
            ],
            "name" : "Baseball Glove",
            "pbrMetallicRoughness" : {
                "baseColorTexture" : {
                    "index" : 0,
                    "texCoord" : 0
                },
                "metallicFactor" : 0,
                "roughnessFactor" : 0.5977653861045837
            }
        }
    ],
    "meshes" : [
        {
            "name" : "Cube.017",
            "primitives" : [
                {
                    "attributes" : {
                        "POSITION" : 0,
                        "NORMAL" : 1,
                        "TEXCOORD_0" : 2
                    },
                    "indices" : 3,
                    "material" : 0
                }
            ]
        }
    ],
    "textures" : [
        {
            "source" : 0
        }
    ],
    "images" : [
        {
            "bufferView" : 4,
            "mimeType" : "image/png",
            "name" : "Untitled"
        }
    ],
    "accessors" : [
        {
            "bufferView" : 0,
            "componentType" : 5126,
            "count" : 1357,
            "max" : [
                0.8925110697746277,
                0.9904433488845825,
                0.8882359862327576
            ],
            "min" : [
                -0.9424262046813965,
                -1.0441335439682007,
                -0.8902132511138916
            ],
            "type" : "VEC3"
        },
        {
            "bufferView" : 1,
            "componentType" : 5126,
            "count" : 1357,
            "type" : "VEC3"
        },
        {
            "bufferView" : 2,
            "componentType" : 5126,
            "count" : 1357,
            "type" : "VEC2"
        },
        {
            "bufferView" : 3,
            "componentType" : 5123,
            "count" : 6942,
            "type" : "SCALAR"
        }
    ],
    "bufferViews" : [
        {
            "buffer" : 0,
            "byteLength" : 16284,
            "byteOffset" : 0
        },
        {
            "buffer" : 0,
            "byteLength" : 16284,
            "byteOffset" : 16284
        },
        {
            "buffer" : 0,
            "byteLength" : 10856,
            "byteOffset" : 32568
        },
        {
            "buffer" : 0,
            "byteLength" : 13884,
            "byteOffset" : 43424
        },
        {
            "buffer" : 0,
            "byteLength" : 150396,
            "byteOffset" : 57308
        }
    ],
    "buffers" : [
        {
            "byteLength" : 207704,
            "uri" : "data:application/octet-stream;base64,"
        }
    ]
}
