{
    "asset" : {
        "generator" : "Khronos glTF Blender I/O v1.2.17",
        "version" : "2.0"
    },
    "scene" : 0,
    "scenes" : [
        {
            "name" : "Scene",
            "nodes" : [
                0
            ]
        }
    ],
    "nodes" : [
        {
            "mesh" : 0,
            "name" : "fireplace",
            "rotation" : [
                0,
                0.7071066498756409,
                0,
                0.70710688829422
            ],
            "scale" : [
                0.17679361999034882,
                0.17679361999034882,
                0.17679361999034882
            ]
        }
    ],
    "materials" : [
        {
            "doubleSided" : true,
            "emissiveFactor" : [
                0,
                0,
                0
            ],
            "name" : "Basic White",
            "pbrMetallicRoughness" : {
                "baseColorTexture" : {
                    "index" : 0,
                    "texCoord" : 0
                },
                "metallicFactor" : 0,
                "roughnessFactor" : 0.4525139629840851
            }
        }
    ],
    "meshes" : [
        {
            "name" : "top moulding.001",
            "primitives" : [
                {
                    "attributes" : {
                        "POSITION" : 0,
                        "NORMAL" : 1,
                        "TEXCOORD_0" : 2
                    },
                    "indices" : 3,
                    "material" : 0
                }
            ]
        }
    ],
    "textures" : [
        {
            "source" : 0
        }
    ],
    "images" : [
        {
            "bufferView" : 4,
            "mimeType" : "image/png",
            "name" : "color-palette"
        }
    ],
    "accessors" : [
        {
            "bufferView" : 0,
            "componentType" : 5126,
            "count" : 1778,
            "max" : [
                14.364632606506348,
                50.7127571105957,
                30.000017166137695
            ],
            "min" : [
                -4.027027606964111,
                -0.037220001220703125,
                -29.999980926513672
            ],
            "type" : "VEC3"
        },
        {
            "bufferView" : 1,
            "componentType" : 5126,
            "count" : 1778,
            "type" : "VEC3"
        },
        {
            "bufferView" : 2,
            "componentType" : 5126,
            "count" : 1778,
            "type" : "VEC2"
        },
        {
            "bufferView" : 3,
            "componentType" : 5123,
            "count" : 3885,
            "type" : "SCALAR"
        }
    ],
    "bufferViews" : [
        {
            "buffer" : 0,
            "byteLength" : 21336,
            "byteOffset" : 0
        },
        {
            "buffer" : 0,
            "byteLength" : 21336,
            "byteOffset" : 21336
        },
        {
            "buffer" : 0,
            "byteLength" : 14224,
            "byteOffset" : 42672
        },
        {
            "buffer" : 0,
            "byteLength" : 7770,
            "byteOffset" : 56896
        },
        {
            "buffer" : 0,
            "byteLength" : 21816,
            "byteOffset" : 64668
        }
    ],
    "buffers" : [
        {
            "byteLength" : 86484,
            "uri" : "data:application/octet-stream;base64,"
        }
    ]
}
